<svg width="150" height="150" viewBox="0 0 150 150" fill="none" xmlns="http://www.w3.org/2000/svg">
<path d="M78.3538 50.4259L83.6177 47.3774L137.745 78.7039L139.372 75.8784L86.8713 45.4938L92.0754 42.4803L137.75 68.9146L139.377 66.0891L95.329 40.5966L100.531 37.5848L137.755 59.1269L139.382 56.3014L103.783 35.7011L108.986 32.6893L137.757 49.3409L139.384 46.5155L112.239 30.8056L117.443 27.7921L137.76 39.5516L139.387 36.7261L117.443 24.0282L55.6035 59.8341L55.6019 53.7405L109.731 22.4141L108.104 19.5886L55.6019 49.9732L55.6002 43.9512L101.277 17.5169L99.65 14.6915L55.6002 40.1856L55.5985 34.1619L92.8207 12.6198L91.1939 9.7943L55.5985 30.3946L55.5969 24.3726L84.3663 7.72262L82.7395 4.89715L55.5952 20.607L55.5936 14.5816L75.9103 2.82381L74.2835 0L52.34 12.6996L52.3549 84.2866L47.0877 81.2398V18.5885H43.8341V79.3595L38.63 76.3493V23.479H35.3764V74.4657L30.1707 71.4555V28.3712H26.9171V69.5735L21.713 66.5633V33.2634H18.4594V64.6813L13.2536 61.6712V38.1539H10V63.5515L71.8549 99.3325L66.5911 102.381L12.4651 71.0561L10.8383 73.8816L63.3424 104.266L58.1383 107.28L12.4618 80.8454L10.835 83.6709L54.8847 109.163L49.6823 112.175L12.4585 90.6331L10.8317 93.4586L46.4287 114.061L41.2263 117.072L12.4568 100.421L10.83 103.246L37.976 118.956L32.7719 121.97L12.4551 110.21L10.8283 113.036L32.7719 125.733L94.6119 89.9275L94.6135 96.0211L40.4826 127.348L42.1094 130.173L94.6119 99.7884L94.6135 105.81L48.9386 132.243L50.5654 135.069L94.6135 109.574L94.6152 115.598L57.393 137.142L59.0198 139.967L94.6168 119.365L94.6185 125.387L65.8474 142.037L67.4742 144.863L94.6185 129.153L94.6202 135.178L74.3034 146.936L75.9302 149.76L97.8738 137.06L97.8588 65.4734L103.126 68.5202V131.173H106.38V70.4005L111.585 73.4107V126.281H114.839V75.2943L120.043 78.3045V121.389H123.297V80.1865L128.502 83.1967V116.497H131.756V85.0787L136.962 88.0888V111.604H140.215V86.2068L78.3538 50.4259ZM94.6085 86.1603L75.1118 97.4488L55.6102 86.1686L55.6052 63.5981L75.1019 52.3095L94.6036 63.5898L94.6085 86.1603Z" fill="black"/>
</svg>
