<svg xmlns="http://www.w3.org/2000/svg" xmlns:xlink="http://www.w3.org/1999/xlink" version="1.1" x="0px" y="0px" viewBox="0 0 100 125" enable-background="new 0 0 100 100" xml:space="preserve"><g><g><polygon points="66.6700134,70.5900269 66.6700134,72.5499878 64.7099915,72.5499878 64.7099915,74.5100098     62.7499695,74.5100098 60.7799988,74.5100098 60.7799988,76.4699707 58.8199768,76.4699707 56.8600159,76.4699707     56.8600159,78.4299927 54.8999939,78.4299927 52.9399719,78.4299927 50.980011,78.4299927 50.980011,76.4699707     50.980011,74.5100098 50.980011,72.5499878 50.980011,70.5900269 50.980011,68.6300049 50.980011,66.6699829 50.980011,64.710022     50.980011,62.75 50.980011,60.789978 50.980011,58.8300171 50.980011,56.8599854 50.980011,54.9000244 50.980011,52.9400024     50.980011,50.9800415 50.980011,49.0200195 50.980011,47.0599976 50.980011,45.1000366 50.980011,43.1400146     50.980011,41.1799927 50.980011,39.2200317 50.980011,37.2600098 50.980011,35.2999878 50.980011,33.3300171     50.980011,31.3699951 50.980011,29.4100342 50.980011,27.4500122 50.980011,25.4899902 50.980011,23.5300293     50.980011,21.5700073 52.9399719,21.5700073 54.8999939,21.5700073 56.8600159,21.5700073 56.8600159,23.5300293     58.8199768,23.5300293 60.7799988,23.5300293 60.7799988,25.4899902 62.7499695,25.4899902 64.7099915,25.4899902     64.7099915,27.4500122 66.6700134,27.4500122 66.6700134,29.4100342 68.6299744,29.4100342 70.5899963,29.4100342     70.5899963,27.4500122 70.5899963,25.4899902 68.6299744,25.4899902 68.6299744,23.5300293 66.6700134,23.5300293     64.7099915,23.5300293 64.7099915,21.5700073 62.7499695,21.5700073 62.7499695,19.6100464 60.7799988,19.6100464     58.8199768,19.6100464 56.8600159,19.6100464 56.8600159,17.6500244 54.8999939,17.6500244 52.9399719,17.6500244     50.980011,17.6500244 49.019989,17.6500244 47.059967,17.6500244 45.1000061,17.6500244 43.1399841,17.6500244     43.1399841,19.6100464 41.1799622,19.6100464 39.2200012,19.6100464 37.2499695,19.6100464 37.2499695,21.5700073     35.2900085,21.5700073 35.2900085,23.5300293 33.3299866,23.5300293 31.3699646,23.5300293 31.3699646,25.4899902     29.4100037,25.4899902 29.4100037,27.4500122 29.4100037,29.4100342 27.4499817,29.4100342 25.4899597,29.4100342     25.4899597,31.3699951 23.5299988,31.3699951 23.5299988,33.3300171 23.5299988,35.2999878 21.5699768,35.2999878     21.5699768,37.2600098 19.6100159,37.2600098 19.6100159,39.2200317 19.6100159,41.1799927 19.6100159,43.1400146     17.6499939,43.1400146 17.6499939,45.1000366 17.6499939,47.0599976 17.6499939,49.0200195 17.6499939,50.9800415     17.6499939,52.9400024 17.6499939,54.9000244 17.6499939,56.8599854 19.6100159,56.8599854 19.6100159,58.8300171     19.6100159,60.789978 19.6100159,62.75 21.5699768,62.75 21.5699768,64.710022 23.5299988,64.710022 23.5299988,66.6699829     23.5299988,68.6300049 25.4899597,68.6300049 25.4899597,70.5900269 27.4499817,70.5900269 29.4100037,70.5900269     29.4100037,72.5499878 29.4100037,74.5100098 31.3699646,74.5100098 31.3699646,76.4699707 33.3299866,76.4699707     35.2900085,76.4699707 35.2900085,78.4299927 37.2499695,78.4299927 37.2499695,80.3900146 39.2200012,80.3900146     41.1799622,80.3900146 43.1399841,80.3900146 43.1399841,82.3499756 45.1000061,82.3499756 47.059967,82.3499756     49.019989,82.3499756 50.980011,82.3499756 52.9399719,82.3499756 54.8999939,82.3499756 56.8600159,82.3499756     56.8600159,80.3900146 58.8199768,80.3900146 60.7799988,80.3900146 62.7499695,80.3900146 62.7499695,78.4299927     64.7099915,78.4299927 64.7099915,76.4699707 66.6700134,76.4699707 68.6299744,76.4699707 68.6299744,74.5100098     70.5899963,74.5100098 70.5899963,72.5499878 70.5899963,70.5900269 68.6299744,70.5900269   "/><polygon points="80.3899841,41.1799927 80.3899841,39.2200317 80.3899841,37.2600098 78.4299622,37.2600098     78.4299622,35.2999878 76.4700012,35.2999878 76.4700012,33.3300171 76.4700012,31.3699951 74.5099792,31.3699951     74.5099792,29.4100342 72.5499573,29.4100342 70.5899963,29.4100342 70.5899963,31.3699951 70.5899963,33.3300171     72.5499573,33.3300171 72.5499573,35.2999878 74.5099792,35.2999878 74.5099792,37.2600098 74.5099792,39.2200317     76.4700012,39.2200317 76.4700012,41.1799927 76.4700012,43.1400146 78.4299622,43.1400146 78.4299622,45.1000366     78.4299622,47.0599976 78.4299622,49.0200195 78.4299622,50.9800415 78.4299622,52.9400024 78.4299622,54.9000244     78.4299622,56.8599854 76.4700012,56.8599854 76.4700012,58.8300171 76.4700012,60.789978 74.5099792,60.789978 74.5099792,62.75     74.5099792,64.710022 72.5499573,64.710022 72.5499573,66.6699829 70.5899963,66.6699829 70.5899963,68.6300049     70.5899963,70.5900269 72.5499573,70.5900269 74.5099792,70.5900269 74.5099792,68.6300049 76.4700012,68.6300049     76.4700012,66.6699829 76.4700012,64.710022 78.4299622,64.710022 78.4299622,62.75 80.3899841,62.75 80.3899841,60.789978     80.3899841,58.8300171 80.3899841,56.8599854 82.3500061,56.8599854 82.3500061,54.9000244 82.3500061,52.9400024     82.3500061,50.9800415 82.3500061,49.0200195 82.3500061,47.0599976 82.3500061,45.1000366 82.3500061,43.1400146     80.3899841,43.1400146   "/></g></g><text x="0" y="115" fill="#000000" font-size="5px" font-weight="bold" font-family="'Helvetica Neue', Helvetica, Arial-Unicode, Arial, Sans-serif">Created by nakals</text><text x="0" y="120" fill="#000000" font-size="5px" font-weight="bold" font-family="'Helvetica Neue', Helvetica, Arial-Unicode, Arial, Sans-serif">from the Noun Project</text></svg>