<svg xmlns:dc="http://purl.org/dc/elements/1.1/" xmlns:cc="http://creativecommons.org/ns#" xmlns:rdf="http://www.w3.org/1999/02/22-rdf-syntax-ns#" xmlns:svg="http://www.w3.org/2000/svg" xmlns="http://www.w3.org/2000/svg" xmlns:sodipodi="http://sodipodi.sourceforge.net/DTD/sodipodi-0.dtd" xmlns:inkscape="http://www.inkscape.org/namespaces/inkscape" version="1.1" x="0px" y="0px" viewBox="0 0 100 125"><g transform="translate(0,-952.36218)"><path style="color:#000000;enable-background:accumulate;" d="m 16,964.36217 c -2.2159,0 -4,1.78406 -4,4 l 0,68.00003 c 0,2.2159 1.7841,4 4,4 l 68,0 c 2.2159,0 4,-1.7841 4,-4 l 0,-68.00003 c 0,-2.21594 -1.7841,-4 -4,-4 l -68,0 z m 34,6 c 17.6495,0 32,14.3505 32,32.00003 0,17.3268 -13.8265,31.4571 -31.0313,31.9687 -0.319,0.031 -0.6422,0.031 -0.9687,0.031 -0.3264,0 -0.6498,-2e-4 -0.9687,-0.031 C 31.8265,1033.8193 18,1019.689 18,1002.3622 18,984.71267 32.3506,970.36217 50,970.36217 z m -2,4.375 c -2.4201,0.8756 -4.8289,3.31425 -6.8125,7.28125 -0.787,1.5741 -1.4683,3.38835 -2.0625,5.34377 l 8.875,0 0,-12.62502 z m 4,0 0,12.62502 8.875,0 c -0.5941,-1.95542 -1.2754,-3.76967 -2.0625,-5.34377 -1.9835,-3.967 -4.3924,-6.40565 -6.8125,-7.28125 z m -11.9063,1.46875 c -5.7001,2.1546 -10.4981,6.08625 -13.7187,11.15627 l 8.5625,0 c 0.7143,-2.59182 1.5965,-5.00552 2.6562,-7.12502 0.7386,-1.4772 1.5881,-2.81595 2.5,-4.03125 z m 19.8126,0 c 0.9119,1.2153 1.7614,2.55405 2.5,4.03125 1.0597,2.1195 1.9419,4.5332 2.6562,7.12502 l 8.5625,0 c -3.2205,-5.07002 -8.0186,-9.00167 -13.7187,-11.15627 z m -35.6876,15.15627 c -1.1899,2.7898 -1.9003,5.8287 -2.125,9.00001 l 10.9688,0 c 0.099,-3.14501 0.4333,-6.16111 0.9688,-9.00001 l -9.8126,0 z m 13.875,0 c -0.5773,2.8011 -0.9521,5.8193 -1.0624,9.00001 l 10.9687,0 0,-9.00001 -9.9063,0 z m 13.9063,0 0,9.00001 10.9687,0 c -0.1103,-3.18071 -0.4851,-6.19891 -1.0624,-9.00001 l -9.9063,0 z m 13.9687,0 c 0.5355,2.8389 0.8698,5.855 0.9688,9.00001 l 10.9688,0 c -0.2247,-3.17131 -0.9352,-6.21021 -2.125,-9.00001 l -9.8126,0 z m -43.875,13.00001 c 0.2219,3.182 0.9318,6.2015 2.125,9 l 9.7813,0 c -0.5346,-2.8341 -0.8395,-5.8559 -0.9375,-9 l -10.9688,0 z m 14.9376,0 c 0.1099,3.1686 0.4882,6.2126 1.0624,9 l 9.9063,0 0,-9 -10.9687,0 z m 14.9687,0 0,9 9.9063,0 c 0.5742,-2.7874 0.9525,-5.8314 1.0624,-9 l -10.9687,0 z m 14.9375,0 c -0.098,3.1441 -0.4028,6.1659 -0.9375,9 l 9.7813,0 c 1.1932,-2.7985 1.9031,-5.818 2.125,-9 l -10.9688,0 z m -40.5938,13 c 3.2277,5.0923 8.0561,9.0639 13.7813,11.2187 -0.9285,-1.2325 -1.7813,-2.6251 -2.5313,-4.125 -1.0597,-2.1196 -1.9419,-4.5072 -2.6562,-7.0937 l -8.5938,0 z m 12.7813,0 c 0.5942,1.9512 1.2755,3.7385 2.0625,5.3125 1.9836,3.967 4.3924,6.4599 6.8125,7.3437 l 0,-12.6562 -8.875,0 z m 12.875,0 0,12.6562 c 2.4201,-0.8838 4.829,-3.3767 6.8125,-7.3437 0.7871,-1.574 1.4684,-3.3613 2.0625,-5.3125 l -8.875,0 z m 13.0625,0 c -0.7143,2.5865 -1.5965,4.9741 -2.6562,7.0937 -0.75,1.4999 -1.6027,2.8925 -2.5313,4.125 5.7253,-2.1548 10.5536,-6.1264 13.7813,-11.2187 l -8.5938,0 z" fill="#000000" stroke="none" marker="none" visibility="visible" display="inline" overflow="visible"/></g><text x="0" y="115" fill="#000000" font-size="5px" font-weight="bold" font-family="'Helvetica Neue', Helvetica, Arial-Unicode, Arial, Sans-serif">Created by Aya Sofya</text><text x="0" y="120" fill="#000000" font-size="5px" font-weight="bold" font-family="'Helvetica Neue', Helvetica, Arial-Unicode, Arial, Sans-serif">from the Noun Project</text></svg>