<svg xmlns="http://www.w3.org/2000/svg" xmlns:xlink="http://www.w3.org/1999/xlink" version="1.1" x="0px" y="0px" viewBox="0 0 100 125" enable-background="new 0 0 100 100" xml:space="preserve"><g><polygon points="88.2400208,73.5300293 86.2799988,73.5300293 84.3100281,73.5300293 84.3100281,71.5700073 84.3100281,69.6099854    82.3500061,69.6099854 82.3500061,67.6500244 80.3899841,67.6500244 78.4300232,67.6500244 78.4300232,65.6900024    76.4700012,65.6900024 74.5099792,65.6900024 74.5099792,67.6500244 72.5500183,67.6500244 70.5899963,67.6500244    70.5899963,69.6099854 68.6300354,69.6099854 66.6700134,69.6099854 66.6700134,71.5700073 64.7099915,71.5700073    64.7099915,69.6099854 66.6700134,69.6099854 66.6700134,67.6500244 68.6300354,67.6500244 70.5899963,67.6500244    70.5899963,65.6900024 72.5500183,65.6900024 74.5099792,65.6900024 74.5099792,63.7199707 76.4700012,63.7199707    76.4700012,61.7600098 76.4700012,59.7999878 76.4700012,57.8400269 74.5099792,57.8400269 74.5099792,55.8800049    72.5500183,55.8800049 72.5500183,53.9199829 70.5899963,53.9199829 70.5899963,51.960022 68.6300354,51.960022    66.6700134,51.960022 66.6700134,50 64.7099915,50 62.7500305,50 60.7900085,50 58.8199768,50 58.8199768,51.960022    56.8600159,51.960022 54.8999939,51.960022 54.8999939,53.9199829 52.940033,53.9199829 52.940033,51.960022 54.8999939,51.960022    54.8999939,50 56.8600159,50 58.8199768,50 58.8199768,48.039978 60.7900085,48.039978 62.7500305,48.039978 64.7099915,48.039978    64.7099915,46.0800171 66.6700134,46.0800171 66.6700134,44.1199951 66.6700134,42.1599731 66.6700134,40.1900024    66.6700134,38.2299805 64.7099915,38.2299805 64.7099915,36.2700195 62.7500305,36.2700195 62.7500305,34.3099976    60.7900085,34.3099976 60.7900085,32.3499756 58.8199768,32.3499756 58.8199768,30.3900146 56.8600159,30.3900146    56.8600159,28.4299927 54.8999939,28.4299927 52.940033,28.4299927 52.940033,26.4699707 50.980011,26.4699707    49.019989,26.4699707 49.019989,24.5100098 47.0600281,24.5100098 45.1000061,24.5100098 43.1399841,24.5100098    41.1800232,24.5100098 41.1800232,26.4699707 39.2200012,26.4699707 39.2200012,28.4299927 37.2599792,28.4299927    37.2599792,30.3900146 35.2900085,30.3900146 33.3299866,30.3900146 33.3299866,32.3499756 31.3700256,32.3499756    31.3700256,34.3099976 31.3700256,36.2700195 29.4100037,36.2700195 29.4100037,38.2299805 29.4100037,40.1900024    27.4499817,40.1900024 27.4499817,42.1599731 27.4499817,44.1199951 29.4100037,44.1199951 31.3700256,44.1199951    31.3700256,46.0800171 33.3299866,46.0800171 33.3299866,48.039978 33.3299866,50 35.2900085,50 37.2599792,50    37.2599792,51.960022 39.2200012,51.960022 39.2200012,53.9199829 41.1800232,53.9199829 41.1800232,55.8800049    39.2200012,55.8800049 39.2200012,53.9199829 37.2599792,53.9199829 37.2599792,51.960022 35.2900085,51.960022    33.3299866,51.960022 33.3299866,50 31.3700256,50 31.3700256,48.039978 31.3700256,46.0800171 29.4100037,46.0800171    27.4499817,46.0800171 27.4499817,44.1199951 25.4900208,44.1199951 23.5299988,44.1199951 21.5699768,44.1199951    19.6100159,44.1199951 17.6499939,44.1199951 17.6499939,46.0800171 15.690033,46.0800171 15.690033,48.039978    13.730011,48.039978 13.730011,50 13.730011,51.960022 11.769989,51.960022 11.769989,53.9199829 11.769989,55.8800049    9.8000183,55.8800049 9.8000183,57.8400269 9.8000183,59.7999878 9.8000183,61.7600098 9.8000183,63.7199707 11.769989,63.7199707    11.769989,65.6900024 11.769989,67.6500244 13.730011,67.6500244 13.730011,69.6099854 13.730011,71.5700073 15.690033,71.5700073    15.690033,73.5300293 15.690033,75.4899902 17.6499939,75.4899902 19.6100159,75.4899902 21.5699768,75.4899902    23.5299988,75.4899902 25.4900208,75.4899902 27.4499817,75.4899902 29.4100037,75.4899902 31.3700256,75.4899902    33.3299866,75.4899902 35.2900085,75.4899902 37.2599792,75.4899902 39.2200012,75.4899902 41.1800232,75.4899902    43.1399841,75.4899902 45.1000061,75.4899902 47.0600281,75.4899902 49.019989,75.4899902 50.980011,75.4899902    52.940033,75.4899902 54.8999939,75.4899902 56.8600159,75.4899902 58.8199768,75.4899902 60.7900085,75.4899902    62.7500305,75.4899902 64.7099915,75.4899902 66.6700134,75.4899902 68.6300354,75.4899902 70.5899963,75.4899902    72.5500183,75.4899902 74.5099792,75.4899902 76.4700012,75.4899902 78.4300232,75.4899902 80.3899841,75.4899902    82.3500061,75.4899902 84.3100281,75.4899902 86.2799988,75.4899902 88.2400208,75.4899902 90.1999817,75.4899902    90.1999817,73.5300293  "/></g><text x="0" y="115" fill="#000000" font-size="5px" font-weight="bold" font-family="'Helvetica Neue', Helvetica, Arial-Unicode, Arial, Sans-serif">Created by nakals</text><text x="0" y="120" fill="#000000" font-size="5px" font-weight="bold" font-family="'Helvetica Neue', Helvetica, Arial-Unicode, Arial, Sans-serif">from the Noun Project</text></svg>