<svg xmlns="http://www.w3.org/2000/svg" xmlns:xlink="http://www.w3.org/1999/xlink" version="1.1" x="0px" y="0px" viewBox="0 0 100 125" enable-background="new 0 0 100 100" xml:space="preserve"><path d="M51.956,35.304l3.171-1.832l32.607,18.826l0.98-1.698L57.087,32.34l3.135-1.811l27.515,15.886l0.98-1.698l-26.535-15.32  l3.134-1.81l22.424,12.946l0.98-1.698L67.275,26.455l3.134-1.81l17.332,10.007l0.98-1.698l-16.352-9.441l3.135-1.811l12.239,7.067  l0.98-1.698L75.504,19.44L38.251,40.958l-0.001-3.662l32.608-18.826l-0.98-1.698L38.25,35.032l-0.001-3.619l27.516-15.886  l-0.98-1.698L38.249,29.15l-0.001-3.62l22.423-12.946l-0.98-1.698L38.248,23.266l-0.001-3.619L55.578,9.641l-0.98-1.698  l-16.352,9.441l-0.001-3.621l12.239-7.066L49.504,5l-13.219,7.632l0.009,43.021l-3.173-1.831V16.171h-1.96v36.521l-3.135-1.809  V19.11h-1.96v30.641l-3.136-1.809V22.05h-1.96v24.761l-3.135-1.809V24.99h-1.96v18.881l-3.136-1.809V27.929h-1.96v15.263  l37.262,21.503l-3.171,1.832L12.264,47.702l-0.98,1.698L42.913,67.66l-3.135,1.811L12.262,53.585l-0.98,1.698l26.536,15.32  l-3.134,1.81L12.26,59.467l-0.98,1.698l21.444,12.381l-3.134,1.81L12.259,65.349l-0.98,1.698l16.353,9.441l-3.135,1.811  l-12.239-7.067l-0.98,1.698l13.219,7.631l37.253-21.518l0.001,3.662L29.142,81.531l0.98,1.698l31.628-18.26l0.001,3.619  L34.236,84.473l0.98,1.698L61.751,70.85l0.001,3.62L39.329,87.417l0.98,1.698l21.444-12.381l0.001,3.619L44.422,90.359l0.98,1.698  l16.352-9.441l0.001,3.621l-12.239,7.066L50.496,95l13.219-7.632l-0.009-43.021l3.173,1.831v37.652h1.96V47.308l3.136,1.809V80.89  h1.96V50.249l3.135,1.809V77.95h1.96V53.189l3.136,1.809V75.01h1.96V56.129l3.136,1.809v14.132h1.96V56.807L51.956,35.304z   M61.748,56.779l-11.745,6.784l-11.748-6.779l-0.003-13.564l11.745-6.784l11.748,6.779L61.748,56.779z"/><text x="0" y="115" fill="#000000" font-size="5px" font-weight="bold" font-family="'Helvetica Neue', Helvetica, Arial-Unicode, Arial, Sans-serif">Created by Valter Bispo</text><text x="0" y="120" fill="#000000" font-size="5px" font-weight="bold" font-family="'Helvetica Neue', Helvetica, Arial-Unicode, Arial, Sans-serif">from the Noun Project</text></svg>