<svg xmlns="http://www.w3.org/2000/svg" xmlns:xlink="http://www.w3.org/1999/xlink" version="1.1" x="0px" y="0px" viewBox="0 0 100 125" enable-background="new 0 0 100 100" xml:space="preserve"><path d="M87.65,63.032l0.001-0.631L95,49.7l-1.551-0.898l-7.196,12.436l-3.889-0.004l9.659-16.691l-1.551-0.898L80.294,61.23  l-3.889-0.004l12.639-21.841l-1.551-0.898L74.336,61.224l-3.889-0.004l15.62-26.993l-1.551-0.898L68.376,61.217l-3.889-0.004  l18.602-32.144l-1.551-0.898L69.931,48.227l-1.941-3.371L80.11,23.91l-0.546-0.316L72.24,10.879l-1.553,0.895l7.172,12.45  L75.91,27.59l-9.625-16.711l-1.553,0.895l10.142,17.608l-1.948,3.366L60.329,10.879l-1.553,0.895l13.113,22.765l-1.948,3.366  L54.373,10.879l-1.553,0.895l16.084,27.923l-1.948,3.367L48.417,10.879l-1.553,0.895l11.567,20.08l-3.889-0.004l-12.08-20.971  l-0.547,0.315L27.24,11.179l-0.002,1.793l14.369,0.014l1.941,3.37l-19.286-0.02l-0.002,1.793l20.321,0.021l1.941,3.369  l-25.238-0.025l-0.002,1.793l26.273,0.026l1.941,3.37l-31.19-0.031l-0.002,1.793l32.225,0.032l1.941,3.37L15.328,31.81l-0.002,1.793  L38.5,33.626l-1.95,3.369l-24.199-0.027L12.35,37.6L5,50.3l1.551,0.898l7.197-12.436l3.889,0.004L7.978,55.458l1.551,0.898  L19.707,38.77l3.889,0.004L10.956,60.616l1.551,0.898l13.158-22.738l3.889,0.004L13.934,65.774l1.551,0.898l16.14-27.889  l3.888,0.004L16.912,70.931l1.551,0.898L30.07,51.772l1.941,3.37L19.89,76.09l0.548,0.317l7.323,12.715l1.553-0.895l-7.171-12.451  l1.948-3.366l9.626,16.712l1.553-0.895L25.127,70.618l1.948-3.366l12.597,21.87l1.553-0.895L28.112,65.461l1.948-3.366  l15.568,27.027l1.553-0.895L31.096,60.303l1.948-3.366l18.539,32.185l1.553-0.895L41.57,68.147l3.89,0.004l12.08,20.971l0.547-0.315  l14.675,0.015l0.002-1.793l-14.369-0.014l-1.941-3.37l19.286,0.02l0.002-1.793L55.419,81.85l-1.941-3.369l25.238,0.025l0.002-1.793  l-26.273-0.026l-1.941-3.37l31.19,0.031l0.002-1.793L49.47,71.522l-1.941-3.37l37.142,0.038l0.002-1.793L61.5,66.374l1.95-3.37  L87.65,63.032z M68.894,50.019L62.417,61.21l-3.889-0.004l8.424-14.558L68.894,50.019z M37.066,49.987l6.476-11.19l12.941,0.015  l6.452,11.201l-6.476,11.191l-12.94-0.015L37.066,49.987z M59.464,33.648l6.456,11.207l-1.948,3.366l-8.397-14.577L59.464,33.648z   M40.57,33.628l12.935,0.013l1.944,3.376l-16.83-0.019L40.57,33.628z M31.107,49.981l6.476-11.191l3.889,0.004l-8.424,14.557  L31.107,49.981z M40.537,66.352l-6.456-11.207l1.948-3.366l8.397,14.578L40.537,66.352z M59.43,66.372l-12.934-0.013l-1.945-3.376  l16.829,0.019L59.43,66.372z"/><text x="0" y="115" fill="#000000" font-size="5px" font-weight="bold" font-family="'Helvetica Neue', Helvetica, Arial-Unicode, Arial, Sans-serif">Created by Valter Bispo</text><text x="0" y="120" fill="#000000" font-size="5px" font-weight="bold" font-family="'Helvetica Neue', Helvetica, Arial-Unicode, Arial, Sans-serif">from the Noun Project</text></svg>