<svg xmlns="http://www.w3.org/2000/svg" viewBox="0 0 96 120" x="0px" y="0px"><title>internet</title><g data-name="1"><path d="M48,7.08A40.92,40.92,0,1,0,88.92,48,41,41,0,0,0,48,7.08ZM83.79,38.93c-4.23-3.46-10.85-6.19-18.92-7.8-1.61-8.07-4.34-14.69-7.79-18.92A37,37,0,0,1,83.79,38.93ZM48,84.92c-4.78,0-9.94-7.42-12.62-19.33A90.41,90.41,0,0,0,48,66.46a90.41,90.41,0,0,0,12.62-.87C57.94,77.5,52.78,84.92,48,84.92Zm0-22.46a84.45,84.45,0,0,1-13.42-1,87.1,87.1,0,0,1,0-26.84,87.1,87.1,0,0,1,26.84,0,84.45,84.45,0,0,1,1,13.42,84.45,84.45,0,0,1-1,13.42A84.45,84.45,0,0,1,48,62.46ZM30.41,60.62C18.5,57.94,11.08,52.78,11.08,48s7.42-9.94,19.33-12.62a92,92,0,0,0,0,25.24ZM48,11.08c4.78,0,9.94,7.42,12.62,19.33a92,92,0,0,0-25.24,0C38.06,18.5,43.22,11.08,48,11.08Zm17.59,24.3C77.5,38.06,84.92,43.22,84.92,48S77.5,57.94,65.59,60.62A90.41,90.41,0,0,0,66.46,48,90.41,90.41,0,0,0,65.59,35.38ZM38.92,12.21c-3.45,4.23-6.18,10.85-7.79,18.92-8.07,1.61-14.69,4.34-18.92,7.8A37,37,0,0,1,38.92,12.21ZM12.21,57.07c4.23,3.46,10.85,6.19,18.92,7.8,1.61,8.07,4.34,14.69,7.79,18.92A37,37,0,0,1,12.21,57.07ZM57.08,83.79c3.45-4.23,6.18-10.85,7.79-18.92,8.07-1.61,14.69-4.34,18.92-7.8A37,37,0,0,1,57.08,83.79Z"/></g><text x="0" y="111" fill="#000000" font-size="5px" font-weight="bold" font-family="'Helvetica Neue', Helvetica, Arial-Unicode, Arial, Sans-serif">Created by Dierys Design</text><text x="0" y="116" fill="#000000" font-size="5px" font-weight="bold" font-family="'Helvetica Neue', Helvetica, Arial-Unicode, Arial, Sans-serif">from the Noun Project</text></svg>